<?xml version="1.0" encoding="utf-8"?>
<!-- Generator: Adobe Illustrator 28.0.0, SVG Export Plug-In . SVG Version: 6.00 Build 0)  -->
<svg version="1.1" id="Layer_1" xmlns="http://www.w3.org/2000/svg" xmlns:xlink="http://www.w3.org/1999/xlink" x="0px" y="0px"
	 viewBox="0 0 512 512" style="enable-background:new 0 0 512 512;" xml:space="preserve">
<style type="text/css">
	.st0{fill:#2AA5DE;}
	.st1{fill:#535454;}
	.st2{fill:#555554;}
</style>
<g id="Logo">
	<path class="st0" d="M256.45,27.26c71.43,0,142.85,0,214.28,0c8.31,0,16.61,0,24.92,0.02c1.18,0,2.36,0.13,3.54,0.22
		c0.53,0.04,1.04,1.19,0.73,1.71c-0.83,1.42-1.59,2.9-2.56,4.23c-4.9,6.7-9.84,13.38-14.81,20.03
		c-5.82,7.79-11.68,15.55-17.53,23.33c-0.71,0.95-1.41,1.91-2.17,2.81c-0.96,1.12-2.15,1.85-3.68,1.87
		c-2.14,0.02-4.27,0.05-6.41,0.05c-32.03,0-64.07-0.01-96.1-0.01c-57.66,0-115.33,0-172.99,0c-1.66,0-3.32-0.01-4.98,0.05
		c-2.37,0.08-3.25,1.02-3.28,3.61c-0.05,4.03-0.04,8.07-0.04,12.1c0,82.81,0,165.62,0,248.43c0,27.05,0.04,54.1-0.01,81.15
		c0,2.01,0.85,4.29-1.13,5.97c-2.13-0.15-3.16-1.96-4.59-3.12c-1.47-1.19-2.77-2.59-4.13-3.92c-12.88-12.62-25.77-25.24-38.65-37.86
		c-1.36-1.33-2.69-2.68-4.03-4.03c-0.87-0.88-1.34-1.93-1.35-3.18c-0.02-1.9-0.06-3.8-0.06-5.69c-0.06-94.2-0.12-188.4-0.18-282.6
		c0-1.66,0.01-3.32-0.01-4.98c-0.08-5.41-0.42-5.77-5.53-5.84c-1.66-0.02-3.32,0-4.98,0c-18.27,0.01-36.54,0.01-54.82,0.02
		c-6.36,0-6.05,0.24-9.89-5.07c-10.7-14.8-21.52-29.52-32.26-44.3c-0.68-0.94-1.16-2.02-1.71-3.06c-0.26-0.49,0.4-1.6,0.96-1.63
		c2.13-0.11,4.25-0.26,6.38-0.26c29.42,0.02,58.85,0.07,88.27,0.08c49.59,0.02,99.19,0,148.78,0
		C256.45,27.36,256.45,27.31,256.45,27.26z"/>
	<path class="st1" d="M315.76,296.63c0-44.61,0-89.22,0-133.83c0-1.66-0.03-3.32-0.1-4.98c-0.04-1.16-1.11-2.14-2.36-2.18
		c-2.13-0.07-4.27-0.11-6.4-0.13c-11.63-0.07-23.26-0.11-34.88-0.19c-1.17-0.01-2.36-0.15-3.51-0.38c-0.37-0.07-0.8-0.57-0.93-0.97
		c-0.21-0.66-0.27-1.39-0.27-2.09c-0.02-13.29-0.02-26.58-0.01-39.86c0-0.71,0.08-1.42,0.14-2.13c0.07-0.77,1.08-1.68,1.97-1.71
		c1.42-0.06,2.84-0.1,4.26-0.1c26.58-0.03,53.16-0.06,79.73-0.09c32.51-0.03,65.02-0.05,97.53-0.07c2.13,0,4.26,0.06,6.4,0.12
		c0.96,0.03,1.44,1.19,0.89,2.08c-0.25,0.4-0.46,0.83-0.74,1.22c-9.74,13.74-19.48,27.48-29.23,41.22
		c-0.41,0.58-0.85,1.14-1.32,1.67c-0.65,0.74-1.5,1.16-2.49,1.19c-1.9,0.05-3.8,0.09-5.69,0.1c-15.9,0.05-31.8,0.08-47.7,0.13
		c-1.9,0.01-3.8,0.04-5.68,0.22c-0.64,0.06-1.38,0.53-1.43,1.34c-0.14,2.12-0.3,4.25-0.3,6.37c-0.03,15.42-0.02,30.85-0.02,46.27
		c0,57.66,0,115.32,0,172.98c0,2.14-0.06,4.27-0.01,6.41c0.04,1.54-0.59,2.75-1.63,3.79c-14.4,14.45-28.81,28.91-43.23,43.35
		c-0.32,0.32-0.8,0.46-1.18,0.72c-0.45,0.32-1.55-0.33-1.58-0.95c-0.07-1.42-0.15-2.84-0.15-4.26
		c-0.01-45.08-0.01-90.17-0.01-135.25C315.81,296.63,315.79,296.63,315.76,296.63z"/>
	<path class="st2" d="M244.75,339.32c0,28.25-0.04,56.49,0.01,84.74c0.04,23.73,0.19,47.47,0.26,71.2c0,1.12,0.38,2.35-0.47,3.36
		c-0.14,0.17-0.47,0.38-0.59,0.32c-0.62-0.31-1.29-0.6-1.78-1.08c-7.37-7.06-14.75-14.11-22.06-21.23
		c-6.29-6.13-12.48-12.36-18.74-18.51c-1.25-1.23-1.97-2.62-1.93-4.4c0.04-1.66-0.01-3.32-0.01-4.98
		c-0.03-42.49-0.05-84.97-0.1-127.46c-0.06-44.38-0.15-88.77-0.22-133.15c0-2.37,0.01-4.75,0.08-7.12c0.05-1.7,1.01-2.72,2.54-2.79
		c0.71-0.03,1.42-0.05,2.14-0.06c12.11-0.01,24.21-0.03,36.32-0.02c0.95,0,1.93-0.04,2.83,0.22c0.61,0.17,1.29,0.66,1.33,1.5
		c0.09,1.89,0.25,3.78,0.25,5.67c0.05,29.19,0.09,58.39,0.12,87.58c0.02,22.07,0,44.15,0,66.22
		C244.73,339.32,244.74,339.32,244.75,339.32z"/>
	<path class="st2" d="M198.86,131.61c0-6.41,0-12.82,0.01-19.22c0-0.71,0.07-1.42,0.12-2.13c0.06-0.93,0.89-1.84,1.74-1.92
		c0.71-0.06,1.41-0.17,2.12-0.17c12.58-0.03,25.16-0.04,37.74-0.05c0.71,0,1.48-0.06,2.11,0.19c0.58,0.23,1.2,0.74,1.47,1.29
		c0.29,0.6,0.28,1.39,0.28,2.09c0.03,13.29,0.04,26.58,0.04,39.87c0,0.7-0.02,1.48-0.32,2.08c-0.28,0.55-0.88,1.08-1.46,1.31
		c-0.63,0.25-1.4,0.19-2.11,0.19c-12.58,0-25.16-0.02-37.74-0.04c-0.71,0-1.41-0.11-2.12-0.18c-0.82-0.08-1.66-1.02-1.7-1.96
		c-0.06-1.42-0.11-2.84-0.11-4.26c-0.01-5.7-0.01-11.39-0.01-17.09C198.91,131.61,198.88,131.61,198.86,131.61z"/>
</g>
</svg>
